<svg xmlns="http://www.w3.org/2000/svg" width="256" height="256"><path fill-opacity=".016" d="M0 128.004v128.004l128.25-.254 128.25-.254.254-127.75L257.008 0H0v128.004m.485.496c0 70.4.119 99.053.265 63.672.146-35.38.146-92.98 0-128C.604 29.153.485 58.1.485 128.5" fill="#1976D2" fill-rule="evenodd"/><path fill-opacity=".342" d="M118.366 2.884c-3.924 1.549-9.211 3.976-11.75 5.395L102 10.859V8.43c0-3.397-1.798-3.033-6.184 1.249-3.06 2.988-4.619 3.73-8.296 3.947-5.628.331-9.219 2.403-12.782 7.374-2.736 3.816-2.813 3.848-8.134 3.299l-5.371-.555-12.249 11.878c-8.52 8.261-12.837 13.241-14.178 16.353-1.207 2.803-5.768 8.412-12.208 15.016C10.417 79.482 9.033 82.4 5.313 103.44l-2.464 13.939 4.023 8.561c6.05 12.874 8.815 25.839 5.01 23.487-.815-.504-1.003 1.09-.67 5.687.367 5.075 1.749 9.26 6.731 20.386 3.447 7.7 7.436 17.15 8.863 21 1.428 3.85 3.579 7.78 4.78 8.732 1.202.953 2.498 3.403 2.881 5.445.856 4.564 4.659 12.229 7.212 14.535 3.128 2.827 8.954 4.788 14.222 4.788 3.807 0 6.122.719 9.921 3.08 2.725 1.694 6.918 3.333 9.317 3.643 4.267.55 17.656 6.614 23.104 10.465 1.509 1.066 3.196 1.658 3.75 1.316.554-.342 1.007.043 1.007.857 0 1.249 2.442 1.452 15.75 1.309 19.836-.214 31.417.864 36.358 3.385 4.785 2.441 6.526 2.454 7.154.052.345-1.319 1.973-2.212 5.366-2.945 4.555-.983 5.021-.892 7.162 1.394 3.035 3.238 4.21 3.083 4.21-.556 0-2.762.278-3 3.5-3 3.161 0 3.5-.269 3.5-2.781 0-2.072 1.523-4.289 5.966-8.686 5.679-5.619 6.056-5.823 7.829-4.218 3.657 3.309 4.549.663 1.208-3.584l-1.996-2.538 3.025-1.054c1.663-.58 3.687-.8 4.496-.49.92.353 1.472-.038 1.472-1.042 0-1.09.893-1.607 2.777-1.607 3.321 0 7.223-2.51 7.223-4.646 0-.842 2.956-5.429 6.568-10.193 6.378-8.411 19.272-32.654 18.028-33.898-.784-.785-6.261 4.4-8.338 7.894-.89 1.497-2.81 2.903-4.397 3.221-1.55.31-6.301 3.331-10.558 6.714-9.833 7.814-32.476 23.864-38.101 27.007-3.934 2.198-4.402 2.262-5.533.756-1.073-1.428-1.488-1.461-3.144-.25-2.459 1.798-3.525 1.766-3.525-.105 0-.933-.944-1.5-2.5-1.5-1.375 0-2.5.498-2.5 1.107s-.675.848-1.5.531c-.914-.35-1.5-.001-1.5.893 0 .808-.675 1.469-1.5 1.469s-1.5.5-1.5 1.111-.885.048-1.967-1.25c-1.65-1.981-1.972-2.079-2-.611-.018.963-.483 1.75-1.033 1.75-.55 0-1 .605-1 1.345 0 2.615-3.588 4.47-11 5.687-9.395 1.543-8.24 1.585-22.5-.803-6.6-1.106-15.375-2.441-19.5-2.968-4.317-.551-9.933-2.111-13.231-3.673l-5.732-2.716 1.729-2.638c1.681-2.565 1.674-2.614-.269-1.783-4.714 2.017-6.201 1.108-21.992-13.451-21.282-19.621-26.355-25.651-30.993-36.839-2.516-6.072-4.163-8.848-5.047-8.509-.721.277-1.83-.465-2.463-1.648-.989-1.848-.86-2.228.914-2.692 1.485-.389 1.938-1.139 1.611-2.676-.25-1.175-.919-5.362-1.487-9.306-.904-6.271-.789-7.838.919-12.5 1.13-3.086 2.607-11.682 3.509-20.418 1.907-18.475 3.393-24.39 8.748-34.808 3.512-6.834 6.29-10.225 17.724-21.634C64.817 39.121 67.928 36.619 78 30.825 100.845 17.681 108.593 15 123.73 15c7.937 0 9.558-.288 11.27-2 2.226-2.226 2.755-8 .732-8-.697 0-2.923-1.125-4.947-2.5-2.023-1.375-4.04-2.485-4.482-2.466-.442.019-4.013 1.302-7.937 2.85m41.743 6.484c-.902 1.088-2.929 1.632-6.076 1.632-5.122 0-8.033 2.045-8.033 5.642C146 20.96 155.509 27 162.308 27c4.155 0 13.86 5.705 34.343 20.189 8.167 5.775 15.398 10.813 16.07 11.196.671.383 2.583-.008 4.25-.87L220 55.949v3.015c0 5.15 3.661 12.966 8.493 18.132 4.515 4.827 4.622 5.09 4.344 10.696-.311 6.268 1.461 10.189 7.779 17.208 1.732 1.925 3.331 4.4 3.553 5.5.222 1.1 1.062 1.892 1.867 1.761 1.202-.196 1.435 1.327 1.305 8.5-.156 8.505-.134 8.592.795 3.239.526-3.025 1.745-8.987 2.71-13.25 1.815-8.014 1.526-9.368-1.172-5.5-1.517 2.176-1.571 2.084-1.622-2.78-.028-2.766-.729-10.5-1.557-17.186l-1.505-12.157-12.593-20.313c-14.228-22.95-20.533-30.01-32.349-36.219-11.11-5.838-17.493-7.694-28.566-8.306-8.494-.468-10.224-.304-11.373 1.079m-33.76 50.008c-2.54 2.185-2.685 2.688-1.806 6.25.527 2.131 1.295 3.762 1.707 3.624.412-.138 2.53-.25 4.705-.25 3.764 0 3.988-.177 4.644-3.677.601-3.2.34-3.979-2.01-6-3.357-2.888-3.825-2.884-7.24.053m-3.189 12.766-3.34.962.252 17.198c.347 23.598.49 23.135-9.616 31.262-9.041 7.272-9.989 8.571-8.41 11.521 1.258 2.351 1.113 2.425 14.396-7.304 8.87-6.496 10.346-8.036 13.693-14.281 4.248-7.927 9.25-25.585 8.438-29.788l-.538-2.787 3.527 2.69c2.976 2.27 4.416 2.662 9.216 2.505 6.212-.203 7.594-.94 7.056-3.764-.281-1.481-1.423-1.917-5.656-2.16-4.233-.243-6.215-1.001-9.817-3.75-3.977-3.036-5.19-3.435-10.188-3.356-3.12.05-7.176.523-9.013 1.052m-10.66 3.975C105.891 78.641 98 84.511 98 86.903c0 3.126 2.631 3.147 6.898.056 2.221-1.609 5.891-3.221 8.156-3.584 4.507-.72 5.248-1.68 4.766-6.177l-.32-2.992-5 1.911m11.44 46.552c-3.623 2.411-4.94 4.398-4.94 7.455 0 1.896.64 2.944 2.075 3.4 1.142.362 2.225.505 2.408.317.515-.528 3.47-12.221 3.166-12.525-.148-.149-1.368.46-2.709 1.353M131 124c-2.978 2.978-2.667 8.33.635 10.927 3.411 2.683 5.621 2.617 8.976-.269 5.381-4.628 2.386-12.658-4.722-12.658-1.589 0-3.789.9-4.889 2m-72.37 19.25c-.331 1.238-.609 7.537-.616 14L58 169h2.456c2.356 0 2.468-.298 2.75-7.25l.294-7.25 1.34 7.25c1.207 6.527 1.572 7.25 3.657 7.25 2.035 0 2.403-.635 3.036-5.25 1.236-9.012 2.334-9.926 2.404-2 .062 7.161.096 7.25 2.714 7.25h2.651l-.646-9.75c-.355-5.363-.648-11.662-.651-14-.005-4.151-.083-4.25-3.345-4.25h-3.34l-1.349 7.25-1.349 7.25-1.215-5c-.668-2.75-1.258-6.012-1.311-7.25-.08-1.871-.666-2.25-3.479-2.25-2.664 0-3.512.479-3.987 2.25m99.37.25c0 1.833.533 2.5 2 2.5 1.884 0 2 .667 2 11.5V169h7v-11.5c0-10.833.116-11.5 2-11.5 1.467 0 2-.667 2-2.5 0-2.444-.167-2.5-7.5-2.5s-7.5.056-7.5 2.5m16 .5c0 1.556.667 2 3 2s3-.444 3-2-.667-2-3-2-3 .444-3 2m-90.345 6.829c-.91 1.006-1.655 2.581-1.655 3.5 0 2.383 5.686 2.312 6.311-.079.354-1.356.483-1.259.573.433.072 1.36-.628 2.418-1.858 2.809-2.293.727-6.026 5.153-6.026 7.143 0 2.308 3.976 5.595 5.827 4.816.92-.387 3.248-.635 5.173-.552l3.5.153-.353-8.776c-.193-4.827-.811-9.338-1.372-10.026-1.571-1.926-8.196-1.547-10.12.579M98 159.075V169h5.916l.292-7.507c.161-4.144.74-7.508 1.292-7.508s1.131 3.364 1.292 7.508l.292 7.507H113v-8.066c0-11.076-.451-11.7-8.475-11.747L98 149.15v9.925m18.571-8.504c-2.513 2.514-1.842 5.568 2.114 9.618 3.817 3.91 4.058 5.916.437 3.655-1.457-.91-2.386-.98-3.13-.236-2.981 2.981 3.99 7.527 8.167 5.326 5.194-2.737 5.096-6.083-.326-11.088-2.291-2.115-3.869-4.143-3.506-4.507.364-.363 1.482.084 2.487.992 1.551 1.405 2.101 1.452 3.658.313 1.761-1.288 1.749-1.423-.32-3.492-2.536-2.536-7.334-2.827-9.581-.581m15.084.258c-.91 1.006-1.655 2.581-1.655 3.5 0 2.383 5.686 2.312 6.311-.079.354-1.356.483-1.259.573.433.072 1.36-.628 2.418-1.858 2.809-2.293.727-6.026 5.153-6.026 7.143 0 2.308 3.976 5.595 5.827 4.816.92-.387 3.248-.635 5.173-.55l3.5.153-.5-8.777c-.275-4.827-.864-9.339-1.309-10.027-1.256-1.941-8.114-1.545-10.036.579M146 159v10h2.954c2.952 0 2.955-.007 3.25-6.75.269-6.133.502-6.779 2.546-7.07 1.749-.248 2.25-.972 2.25-3.25 0-3.078-1.685-3.845-3.8-1.73-.933.933-1.2.933-1.2 0 0-.667-1.333-1.2-3-1.2h-3v10m28 0v10h6v-20h-6v10m9.221 3.325.279 13.175 2.75.316c2.599.299 2.75.094 2.75-3.725 0-3.905.085-4.009 2.518-3.084 2.011.764 2.917.558 4.5-1.025 1.574-1.574 1.982-3.335 1.982-8.548 0-9.466-.61-10.201-8.504-10.247l-6.553-.038.278 13.176M189 159c0 4.667.333 6 1.5 6s1.5-1.333 1.5-6-.333-6-1.5-6-1.5 1.333-1.5 6m-101.333 1.667c-.98.98-.813 4.333.216 4.333.486 0 1.099-1.125 1.362-2.5.463-2.422-.209-3.202-1.578-1.833m48 0c-.98.98-.813 4.333.216 4.333.486 0 1.099-1.125 1.362-2.5.463-2.422-.209-3.202-1.578-1.833M20 164.441c0 .793.408 1.693.907 2.001.498.309.671-.34.383-1.441-.611-2.335-1.29-2.63-1.29-.56m5.035 2.618c-.019.857.626 2.432 1.433 3.5 1.88 2.486 1.902.713.032-2.559-.916-1.602-1.442-1.94-1.465-.941M157 186.927c0 6.459.178 7.073 2.046 7.073 1.888 0 2.023-.52 1.75-6.74-.241-5.483-.622-6.802-2.046-7.073-1.533-.292-1.75.543-1.75 6.74m-98.655-4.384c-.93 2.424.368 2.862 1.609.543.774-1.447.789-2.086.05-2.086-.587 0-1.333.694-1.659 1.543M62 187.5c0 5.833.205 6.5 2 6.5 1.783 0 2.003-.677 2.032-6.25.029-5.713.158-6.083 1.5-4.309 1.435 1.897 1.468 1.891 1.468-.25 0-1.837-.565-2.191-3.5-2.191H62v6.5m9-5c0 1.03.655 1.52 1.75 1.31 2.108-.406 1.975-2.181-.197-2.633-.906-.189-1.553.362-1.553 1.323m26.694-.861c-.933.934.194 2.361 1.865 2.361.793 0 1.441-.675 1.441-1.5 0-1.506-2.111-2.056-3.306-.861m53.495 1.223c-.868.55-1.206 2.489-1 5.735.255 4.013.674 4.955 2.311 5.192 1.842.265 1.973-.19 1.661-5.75-.344-6.136-.642-6.655-2.972-5.177M120 184c0 .55.45 1 1 1s1-.45 1-1-.45-1-1-1-1 .45-1 1m67 0c0 .55.45 1 1 1s1-.45 1-1-.45-1-1-1-1 .45-1 1m-116 5.5c0 3.626.341 4.5 1.757 4.5 1.469 0 1.699-.738 1.4-4.5-.241-3.019-.819-4.5-1.758-4.5-.991 0-1.399 1.311-1.399 4.5m5.5 2c0 5.524.263 6.5 1.75 6.5s1.75-.976 1.75-6.5-.263-6.5-1.75-6.5-1.75.976-1.75 6.5m5-2c0 4.905 1.632 5.991 3.568 2.374.826-1.544.841-2.778.056-4.5-1.804-3.961-3.624-2.893-3.624 2.126m5.5 1.927c0 5.593.261 6.573 1.75 6.573 1.483 0 1.745-.952 1.718-6.242-.026-5.091-.349-6.304-1.75-6.574-1.483-.285-1.718.567-1.718 6.243m5.333-1.927c0 4.693.46 5.307 2.467 3.3 1.543-1.543 1.543-5.057 0-6.6-2.007-2.007-2.467-1.393-2.467 3.3m4.834 0c0 3.768.311 4.5 1.916 4.5s1.917-.732 1.917-4.5-.312-4.5-1.917-4.5-1.916.732-1.916 4.5m5.833-.073c0 3.949.281 4.573 2.057 4.573 1.802 0 2.02-.528 1.75-4.241-.224-3.094-.78-4.332-2.057-4.574-1.46-.277-1.75.426-1.75 4.242m5.473.039c.022 3.689.362 4.528 1.834 4.531 1.508.002 1.757-.7 1.5-4.238-.205-2.839-.812-4.337-1.834-4.531-1.191-.225-1.522.709-1.5 4.238m6.184-3.716c-.253.412-.498 2.325-.542 4.25-.045 1.925-.202 4.352-.349 5.392-.146 1.041.297 2.091.985 2.334.798.282 1.031-.132.643-1.142-.463-1.205.041-1.584 2.106-1.584s2.569.379 2.106 1.584c-.385 1.005-.151 1.431.643 1.166.688-.229 1.251-1.504 1.251-2.833 0-1.845-.602-2.487-2.544-2.714-2.27-.264-2.5-.668-2.14-3.75.363-3.115-.919-4.721-2.159-2.703M118 188c0 2.089.425 3.025 1.25 2.75.688-.229 1.25-1.467 1.25-2.75s-.562-2.521-1.25-2.75c-.825-.275-1.25.661-1.25 2.75m9.2-1.8c-2.127 2.127-.854 7.8 1.75 7.8.302 0 .55-2.025.55-4.5 0-4.743-.352-5.248-2.3-3.3m3.8 3.3c0 4.607.686 5.414 2.8 3.3 2.248-2.248.825-7.8-2-7.8-.44 0-.8 2.025-.8 4.5m5-.073c0 3.949.281 4.573 2.057 4.573 1.802 0 2.02-.528 1.75-4.241-.224-3.094-.78-4.332-2.057-4.574-1.46-.277-1.75.426-1.75 4.242m5.354-2.947c.355.926.646 2.997.646 4.602 0 1.975.503 2.918 1.557 2.918 2.478 0 1.577-8.362-.953-8.843-1.429-.271-1.737.055-1.25 1.323m21.487 2.993c.25 3.133.809 4.527 1.817 4.527 2.079 0 1.442-8.369-.667-8.768-1.207-.229-1.437.622-1.15 4.241m6.284-3.571c-.756.479-1.375 2.098-1.375 3.598 0 2.771 1.579 4.457 4.2 4.485 1.128.012 1.183-.252.25-1.185-1.449-1.449-1.607-6.8-.2-6.8.55 0 1 .675 1 1.5s.675 1.5 1.5 1.5c1.808 0 1.933-1.167.3-2.8-1.405-1.405-3.735-1.527-5.675-.298m12.063.372c-.582.701-.924 2.962-.76 5.026.164 2.063-.098 3.996-.582 4.295-1.206.746-.046 2.405 1.682 2.405.842 0 1.178-.604.834-1.5-.425-1.106.136-1.5 2.138-1.5 2.17 0 2.581.351 2.053 1.75-.618 1.636-.551 1.641 1.03.078 2.439-2.413 1.091-4.803-2.802-4.964-2.217-.092-2.575-.274-1.104-.56 3.272-.637 4.867-2.943 3.323-4.804-1.523-1.835-4.385-1.946-5.812-.226m9.012-.074c-2.127 2.127-.854 7.8 1.75 7.8.302 0 .55-2.025.55-4.5 0-4.743-.352-5.248-2.3-3.3m3.8 3.3c0 4.839 1.236 5.795 3.068 2.374.826-1.544.841-2.778.056-4.5-1.706-3.746-3.124-2.781-3.124 2.126m-11-1.5c0 1.1.45 2 1 2s1-.9 1-2-.45-2-1-2-1 .9-1 2" fill="#1976D2" fill-rule="evenodd"/><path fill-opacity=".425" d="M117.302 3.909c-3.96 1.562-9.247 4.041-11.75 5.508L101 12.084V5.881L96.186 9.94c-3.843 3.24-5.609 4.061-8.75 4.064-4.934.004-9.896 2.966-12.574 7.505C72.879 24.87 72.582 25 66.904 25c-5.364 0-6.284.334-10.151 3.69-12.095 10.494-18.975 18.056-21.819 23.983-2.197 4.578-4.881 7.889-10.388 12.819C12.094 76.636 9.22 82.528 5.665 104.198L3.483 117.5l3.155 6.5c4.062 8.37 6.369 15.3 7.076 21.25.471 3.964.293 4.75-1.075 4.75-1.255 0-1.639.971-1.639 4.15 0 2.947 1.988 8.672 6.859 19.75 3.773 8.58 7.915 18.525 9.204 22.1 1.289 3.575 3.602 7.693 5.14 9.151 1.538 1.458 2.807 3.708 2.819 5 .029 3.101 3.542 10.749 6.29 13.694 3.416 3.661 7.137 5.154 12.888 5.17 2.915.008 6.251.57 7.414 1.25 7.163 4.184 10.384 5.574 14.386 6.208 2.475.391 9.137 3.145 14.805 6.12 5.668 2.974 10.956 5.407 11.75 5.407.795 0 1.445.715 1.445 1.588 0 1.267.758 1.476 3.75 1.032 10.02-1.484 19.282-1.68 25.75-.544 3.85.677 8.889 1.145 11.197 1.041 2.583-.117 6.429.752 10 2.261 5.532 2.336 5.835 2.364 6.498.599.633-1.689 6.203-3.958 9.75-3.971.795-.003 2.708 1.203 4.25 2.681l2.805 2.687v-2.487c0-3.253 1.739-4.887 5.2-4.887 2.411 0 2.8-.395 2.8-2.848 0-2.181 1.418-4.2 6.055-8.623l6.054-5.775 2.382 2.238c2.329 2.188 2.37 2.191 1.837.155-.299-1.145-1.171-2.601-1.936-3.237-2.451-2.034-1.526-3.795 2.358-4.491 2.063-.37 4.425-1.255 5.25-1.967.825-.713 3.04-1.443 4.923-1.624 2.775-.266 3.609-.888 4.403-3.288.54-1.628 3.836-6.702 7.326-11.276 5.933-7.777 18.247-30.698 17.105-31.841-.284-.283-2.783 2.03-5.555 5.14s-5.476 5.386-6.008 5.057c-.531-.329-1.243.41-1.58 1.641-.401 1.463-.875 1.837-1.367 1.079-.504-.775-4.557 1.743-12.25 7.614C199.302 207.93 180.012 221 178.031 221c-.897 0-2.16-.529-2.807-1.176-.902-.902-1.644-.754-3.18.636-1.821 1.648-2.059 1.664-2.63.176-.697-1.817-5.414-2.278-5.414-.529 0 .609-.675.848-1.5.531-.93-.356-1.5.005-1.5.952 0 .841-.419 1.269-.931.953-.512-.317-1.232-.089-1.599.506-.443.717-1.367.469-2.741-.734-1.14-.998-1.744-1.252-1.342-.565.402.688.361 1.25-.091 1.25-.452 0-1.266 1.001-1.809 2.225-1.341 3.025-4.621 4.411-13.487 5.701-6.377.928-8.997.804-17.5-.826-5.5-1.054-13.375-2.214-17.5-2.576-8.334-.732-15.594-2.724-21.242-5.827-3.502-1.924-3.639-2.171-2.126-3.843 1.531-1.692 1.445-1.736-1.658-.847-3.227.926-3.479.744-17.874-12.928-26.788-25.442-29.504-28.768-34.609-42.377-1.131-3.017-2.272-4.616-3.072-4.309-.7.268-1.793-.139-2.428-.904-1.471-1.772-.796-5.083.957-4.693 1.007.224 1.175-.624.693-3.5-1.767-10.559-1.878-16.937-.346-19.9.858-1.659 2.251-9.423 3.129-17.443.87-7.949 2.071-17.153 2.669-20.453 2.547-14.054 9.983-26 25.747-41.365 9.346-9.11 13.983-12.74 23.365-18.294C98.895 18 110.547 14 126.258 14c4.377 0 7.827-.485 8.542-1.2 1.69-1.69 1.56-7.8-.165-7.8-.751 0-2.509-.9-3.908-2-3.303-2.599-4.791-2.498-13.425.909m42.733 6.549c-.793.955-2.2 1.259-4.085.882-6.445-1.289-10.865 2.124-9.023 6.968 1.31 3.447 6.83 6.536 14.569 8.156 7.864 1.645 13.991 5.191 35.504 20.543 10.705 7.64 16.119 10.922 17.5 10.608 1.1-.249 3.012-.767 4.25-1.151 2.046-.634 2.25-.371 2.25 2.909 0 6.081 3.522 13.66 8.233 17.718 4.245 3.656 4.267 3.712 4.292 10.542.027 7.584.891 9.687 6.473 15.761 2.075 2.258 3.954 5.006 4.175 6.106.233 1.151 1.136 1.94 2.13 1.859 1.54-.126 1.674.732 1.244 8l-.483 8.141 1.374-8.26c.755-4.543 1.868-9.678 2.472-11.412 1.267-3.636.925-4.54-.89-2.352-2.337 2.816-3.02 1.564-3.02-5.534 0-3.883-.53-11.42-1.178-16.75l-1.178-9.692-12.924-20.73c-14.488-23.241-20.255-29.666-32.251-35.933C188.844 11.287 180.248 9 170.017 9c-6.464 0-9.09.384-9.982 1.458M126.618 59.29c-1.289.942-1.677 2.356-1.441 5.25l.323 3.96h4.5c4.493 0 4.5-.006 4.815-3.82.173-2.101-.22-4.463-.873-5.25-1.477-1.779-4.99-1.846-7.324-.14M122 72.982c-1.246.791-1.5 4.128-1.5 19.735 0 10.331-.381 19.559-.847 20.507-.466.948-4.628 4.908-9.25 8.8-7.95 6.695-9.995 9.874-7.388 11.485.558.345 6.102-2.981 12.319-7.391 11.176-7.929 11.345-8.108 14.891-15.819 5.872-12.766 9.469-27.134 7.646-30.54-.889-1.661-.783-1.782.814-.927 1.011.54 2.69 1.924 3.731 3.075 3.377 3.732 17.556 2.092 15.178-1.755-.392-.634-2.854-1.152-5.473-1.152-3.996 0-5.418-.563-8.85-3.5-3.924-3.359-4.405-3.499-11.93-3.485-4.313.009-8.516.444-9.341.967m-10.777 4.059C105.021 79.796 98 84.861 98 86.579c0 2.771 2.962 2.635 7.459-.344 2.467-1.634 6.297-3.26 8.513-3.614 3.811-.61 4.028-.832 4.028-4.133 0-4.009-.682-4.154-6.777-1.447m11.604 46.707c-3.188 1.934-4.541 6.967-2.438 9.07.781.78 1.867 1.142 2.415.803 1.026-.634 3.715-10.435 3.046-11.104-.206-.207-1.567.347-3.023 1.231m8.628.707C126.873 129.036 129.614 136 136 136c6.547 0 9.449-7.929 4.365-11.927-3.46-2.722-5.912-2.617-8.91.382M59 155.51c0 12.448.153 13.608 1.75 13.303 1.454-.276 1.835-1.769 2.25-8.823l.5-8.49 1.293 7c1.751 9.476 2.117 10.5 3.755 10.5 1.486 0 1.77-.865 3.422-10.413.562-3.252 1.249-6.139 1.526-6.416.277-.278.504 3.396.504 8.162 0 8 .154 8.667 2 8.667 1.901 0 2-.667 2-13.5V142h-2.961c-3.146 0-3.813 1.346-5.598 11.297-.375 2.088-.87 3.607-1.101 3.377-.23-.231-.988-3.515-1.683-7.297-1.23-6.695-1.348-6.885-4.46-7.19L59 141.873v13.637M158 144c0 1.322.667 2 1.967 2 1.823 0 1.988.825 2.25 11.25l.283 11.25 2.75.316 2.75.317v-11.567c0-10.899.115-11.566 2-11.566 1.333 0 2-.667 2-2 0-1.81-.667-2-7-2s-7 .19-7 2m17 0c0 1.467.667 2 2.5 2s2.5-.533 2.5-2-.667-2-2.5-2-2.5.533-2.5 2m-90.24 6.25c-2.627 2.025-2.633 5.197-.01 5.57 1.513.214 2.25-.195 2.25-1.25 0-.864.675-1.57 1.5-1.57 2.896 0 1.55 3.606-1.974 5.286-3.524 1.681-5.312 5.223-4.157 8.234.872 2.273 3.625 2.965 5.968 1.502 1.496-.935 2.177-.979 2.451-.158.208.625 1.241 1.136 2.295 1.136 1.73 0 1.917-.783 1.917-8 0-6.667-.333-8.333-2-10-2.271-2.271-5.844-2.596-8.24-.75M99 159.167c0 9.822.003 9.833 2.5 9.833 2.458 0 2.5-.133 2.5-8 0-6.444.292-8 1.5-8s1.5 1.556 1.5 8c0 7.867.042 8 2.5 8 2.479 0 2.5-.075 2.5-8.878 0-10.07-1.161-12.281-5.43-10.336-1.304.594-2.65.801-2.991.46-.341-.341-1.511-.686-2.599-.766-1.849-.136-1.98.506-1.98 9.687M117 151c-2.94 2.94-2.482 4.862 2.184 9.17 3.338 3.081 3.931 4.112 2.933 5.096-.994.98-1.52.871-2.557-.533-1.265-1.713-4.56-1.483-4.56.317 0 2.987 8.788 5.2 10.722 2.7 2.534-3.275 2.212-4.866-1.884-9.31-4.158-4.511-4.521-6.972-.675-4.57 1.564.977 2.35 1.011 3.205.141.846-.862.536-1.64-1.229-3.082-3.022-2.469-5.621-2.447-8.139.071m15.76-.75c-2.627 2.025-2.633 5.197-.01 5.57 1.513.214 2.25-.195 2.25-1.25 0-.864.675-1.57 1.5-1.57 2.896 0 1.55 3.606-1.974 5.286-3.524 1.681-5.312 5.223-4.157 8.234.838 2.184 3.595 2.984 5.717 1.658 1.159-.724 2.041-.781 2.427-.158.333.539 1.478.98 2.546.98 1.76 0 1.941-.748 1.941-8 0-6.667-.333-8.333-2-10-2.271-2.271-5.844-2.596-8.24-.75m14.24 8.917c0 9.822.003 9.833 2.5 9.833 2.428 0 2.5-.201 2.5-6.981 0-6.612.132-7.014 2.5-7.608 1.795-.451 2.5-1.302 2.5-3.019 0-2.749-1.186-3.078-3.039-.845-.977 1.177-1.466 1.254-2.043.321-.417-.675-1.694-1.296-2.838-1.381-1.976-.145-2.08.339-2.08 9.68m28 .083c0 9.733.004 9.75 2.5 9.75s2.5-.017 2.5-9.75-.004-9.75-2.5-9.75-2.5.017-2.5 9.75m9 2.836V175h2.5c2.193 0 2.5-.432 2.5-3.519 0-3.259.186-3.473 2.513-2.888 4.321 1.084 5.487-.955 5.487-9.593 0-8.753-1.315-11.071-5.28-9.305-1.221.544-3.458.649-4.97.234l-2.75-.756v12.913m5-3.086c0 5.556.31 7 1.5 7s1.5-1.444 1.5-7-.31-7-1.5-7-1.5 1.444-1.5 7m-101.274 1.738c-1.013 1.127-1.503 2.678-1.143 3.617 1.353 3.528 3.888.873 3.246-3.399-.326-2.173-.343-2.175-2.103-.218m48 0c-1.013 1.127-1.503 2.678-1.143 3.617 1.353 3.528 3.888.873 3.246-3.399-.326-2.173-.343-2.175-2.103-.218M23.541 164.25c1.188 3.958 2.924 7.091 4.149 7.49.662.215.105-1.864-1.252-4.677-2.529-5.241-4.078-6.746-2.897-2.813m-4.509-.5c.017.412.692 1.624 1.5 2.691 1.497 1.98 1.955.992.861-1.859-.611-1.592-2.42-2.229-2.361-.832" fill="#1976D2" fill-rule="evenodd"/><path fill-opacity=".515" d="M126.655 59.829c-1.776 1.963-2.154 5.836-.78 8.004.956 1.507 7.19 1.259 8.36-.333 1.284-1.749.822-6.301-.806-7.929-2.088-2.087-4.743-1.987-6.774.258m-3.465 12.885-2.31.441.191 17.172c.255 22.958.087 23.468-10.552 32.029-7.903 6.361-10.104 9.547-7.644 11.067.481.297 5.769-2.953 11.75-7.222 9.424-6.726 11.307-8.559 14.114-13.732 4.741-8.736 8.47-20.934 8.627-28.217.074-3.436.273-6.248.443-6.25.169-.001 2.079 1.421 4.244 3.161 3.81 3.062 4.119 3.133 9.691 2.25 4.044-.642 5.756-1.359 5.756-2.413 0-1.111-1.404-1.58-5.409-1.808-4.476-.255-6.101-.9-9.43-3.75-3.753-3.213-4.459-3.433-10.591-3.306-3.613.075-7.61.335-8.88.578m-10.716 4.238c-8.215 3.159-14.752 8.16-13.825 10.577.803 2.091 1.836 1.857 6.397-1.447 2.216-1.606 5.843-3.225 8.061-3.6 4.366-.738 5.405-2.004 4.179-5.095-.749-1.89-.975-1.91-4.812-.435m10.296 47.342c-3.507 2.918-4.3 9.147-1.085 8.528 1.083-.208 2.137-2.098 2.951-5.289.697-2.73 1.158-5.072 1.026-5.204-.132-.132-1.433.752-2.892 1.965m8.433-.038c-.573.69-1.346 2.468-1.718 3.949-.529 2.105-.119 3.252 1.874 5.245 3.312 3.312 6.921 3.28 9.568-.085 2.477-3.148 2.605-5.161.516-8.142-1.766-2.523-8.427-3.152-10.24-.967" fill="#1976D2" fill-rule="evenodd"/></svg>