<svg xmlns="http://www.w3.org/2000/svg" width="256" height="256"><path fill-opacity=".016" d="M0 128.004v128.004l128.25-.254 128.25-.254.254-127.75L257.008 0H0v128.004m.485.496c0 70.4.119 99.053.265 63.672.146-35.38.146-92.98 0-128C.604 29.153.485 58.1.485 128.5" fill="#1976D2" fill-rule="evenodd"/><path fill-opacity=".127" d="M3 58.667c0 32.266.192 58.475.426 58.241.234-.234 1.341-6.047 2.461-12.917 2.355-14.448 5.011-22.857 8.779-27.797 1.467-1.923 6.586-7.366 11.377-12.095 6.1-6.023 8.922-9.58 9.418-11.873.908-4.194 3.565-7.298 15.655-18.283L60.959 25h6.277c6.006 0 6.333-.129 7.598-2.988 1.879-4.244 6.609-7.252 12.258-7.795 3.642-.35 5.812-1.299 8.782-3.841C100.589 6.34 101 6.268 101 9.481v2.481l6.25-3.363c3.438-1.85 9.266-4.418 12.952-5.705l6.701-2.341 3.008 2.223C131.566 3.999 133.612 5 134.46 5c1.917 0 2.152 6.268.29 7.75-.687.547-6.2 1.222-12.25 1.501-14.661.676-22.969 3.55-41.902 14.495-13.643 7.888-15.975 9.677-27.606 21.185C33.058 69.653 29.075 78.037 25.879 107c-1.062 9.625-2.594 18.978-3.405 20.784-1.716 3.822-1.848 8.364-.485 16.686.811 4.951.725 6.111-.506 6.799-2.768 1.549-.976 7.241 1.928 6.127.651-.25 1.761 1.225 2.506 3.328 4.826 13.627 8.966 18.673 37.184 45.322 12.361 11.675 12.662 11.882 15.874 10.961 3.202-.918 3.234-.896 1.507 1.013-1.721 1.902-1.599 2.03 4.746 4.999 5.025 2.352 9.337 3.394 18.892 4.565 6.809.834 15.53 2.179 19.38 2.989 12.662 2.664 29.5-.936 29.5-6.306 0-.762.45-1.107 1-.767.55.34 1 .086 1-.563 0-.904.332-.907 1.411-.011.981.814 1.611.847 2.069.106.362-.585 1.077-.806 1.589-.489.512.316.931-.112.931-.953 0-.947.57-1.308 1.5-.952.825.317 1.5.078 1.5-.531s1.125-1.107 2.5-1.107c1.556 0 2.5.567 2.5 1.5 0 1.962.898 1.894 3.317-.25 1.448-1.283 2.092-1.416 2.412-.5 1.352 3.865 11.477-2.016 38.458-22.337 10.821-8.15 13.782-9.953 14.144-8.611.375 1.395.586 1.296 1.18-.552.397-1.237 1.223-2.25 1.834-2.25.612 0 3.485-2.588 6.385-5.75l5.272-5.75-2.006 5.299c-3.683 9.731-12.369 24.678-17.555 30.209-1.293 1.379-3.417 4.529-4.72 7-1.929 3.66-2.942 4.549-5.47 4.8-1.706.169-3.641.957-4.299 1.75-.658.793-2.012 1.442-3.009 1.442-.997 0-2.999.451-4.449 1.002l-2.636 1.002 2.071 2.633c2.646 3.364 2.688 5.232.065 2.857-1.965-1.778-2.143-1.679-8.627 4.806-4.914 4.913-6.487 7.133-6.102 8.606.439 1.678-.045 2.033-3.123 2.29-3.14.262-3.686.683-3.958 3.054-.381 3.304-1.445 3.496-3.363.607-1.255-1.89-1.989-2.059-6.194-1.428-2.624.393-5.639 1.583-6.699 2.643-2.414 2.414-3.074 2.404-8.014-.116-2.414-1.231-5.676-1.982-8.21-1.888-2.312.085-7.567-.395-11.677-1.068-6.936-1.135-21.707-.775-27.777.678-1.784.427-2.25.109-2.25-1.538 0-1.344-.482-1.892-1.364-1.554-.75.288-6.038-2.05-11.75-5.195-7.052-3.884-12.1-5.964-15.725-6.481-3.083-.44-7.079-1.914-9.46-3.489-3.052-2.02-5.957-2.908-11.188-3.42-8.017-.785-10.282-1.749-13.729-5.846-2.66-3.161-4.12-6.419-5.766-12.868-.591-2.318-1.932-4.814-2.979-5.547-1.047-.733-3.004-4.257-4.349-7.831-1.345-3.574-5.502-13.448-9.238-21.943C11.319 158.744 9.189 150 12.373 150c2.434 0 2.084-5.786-.885-14.631C8.997 127.949 4.412 118 3.483 118 3.217 118 3 149.05 3 187v69h250V0H3v58.667m156.981-48.144c-.713.86-2.053 1.271-3.078.946-3.303-1.048-9.004.632-9.861 2.907-1.941 5.146 5.124 10.723 15.458 12.204 5.874.842 13.987 5.634 35.858 21.181 14.496 10.305 14.936 10.534 18.071 9.401 4.485-1.622 4.571-1.578 4.571 2.327 0 5.973 3.554 13.573 8.233 17.602 4.241 3.653 4.267 3.718 4.306 10.542.041 7.412 1.124 9.933 7.031 16.367 1.767 1.925 3.527 4.545 3.912 5.822.457 1.521 1.215 2.125 2.194 1.749 1.276-.49 1.411.559.921 7.178l-.575 7.751 1.854-10.127c1.02-5.57 2.173-10.745 2.563-11.5.39-.755.064-.585-.725.377-2.777 3.388-3.713 2.017-3.75-5.5-.02-3.987-.606-11.57-1.303-16.851l-1.266-9.6-12.929-20.756c-17.155-27.542-24.43-34.22-44.642-40.977-9.277-3.101-24.639-3.698-26.843-1.043m-38.438 74.822c-1.05.768-1.597 2.23-1.388 3.711.278 1.972.924 2.444 3.345 2.444 2.511 0 3.051-.437 3.31-2.683.393-3.398-2.637-5.396-5.267-3.472m9.942 3.905c-3.025 8.366-3.482 10.59-2.931 14.261.558 3.722.376 4.2-2.017 5.29-3.375 1.538-3.434 1.528-3.297-.551.169-2.558-2.239-9.25-3.329-9.25-.532 0-.656 1.742-.289 4.039.463 2.893.125 5.196-1.189 8.11l-1.835 4.07 2.787 5.14c3.386 6.244 7.307 11.282 8.136 10.453.336-.335-.769-3.054-2.455-6.042-3.542-6.275-3.714-7.333-1.316-8.088.963-.303 4.812-1.707 8.555-3.12l6.804-2.569 3.964 3.186c3.184 2.559 4.205 2.936 5.195 1.917.983-1.012.325-2.055-3.264-5.171-2.473-2.147-5.173-3.719-6-3.494-.827.226-2.486.692-3.686 1.035-1.952.56-2.253.154-2.853-3.851-.463-3.085-.15-6.047 1.005-9.524 1.624-4.891 1.45-7.091-.56-7.091-.535 0-1.176.563-1.425 1.25m7.523 2.5c.005.412 1.917 1.761 4.25 2.997l4.242 2.247-3.266-2.997c-3.16-2.9-5.243-3.795-5.226-2.247m-31.437 18.821c-1.859 1.86-1.875 1.993-.536 4.495 1.167 2.18 3.963 2.536 5.765.734 1.802-1.802 1.446-4.598-.734-5.765-2.502-1.339-2.635-1.323-4.495.536m65.076 29.267c-1.557 1.72-1.535 1.954.345 3.655 1.941 1.756 2.075 1.756 4.016 0 1.88-1.701 1.902-1.935.345-3.655-.915-1.011-1.973-1.838-2.353-1.838-.38 0-1.438.827-2.353 1.838m-26.449 5.527c.355 4.854 3.098 5.904 3.618 1.385.224-1.943.884-2.75 2.25-2.75 1.768 0 1.934.769 1.934 8.95 0 7.468-.288 9.112-1.742 9.925-2.616 1.464-1.415 1.683 5.742 1.048 3.575-.318 5.713-.655 4.75-.75-1.533-.152-1.75-1.361-1.75-9.746 0-8.578.182-9.539 1.75-9.242 1.044.198 1.875 1.415 2.061 3.015.255 2.204.879 2.737 3.5 2.991 3.147.305 3.193.386 3.492 6.16.229 4.43-.08 6.13-1.274 7-1.234.9-.227 1.073 4.647.8 4.585-.257 5.775-.599 4.523-1.3-1.341-.75-1.699-2.396-1.699-7.817 0-7.555-.495-8.156-5.75-6.975-3.222.724-3.25.698-3.25-3.049v-3.779h-23.104l.302 4.134m-90.948-1.973c2.396 1.819 2.61 18.341.25 19.246-2.882 1.106-1.461 1.862 3.5 1.862 2.75 0 5-.338 5-.75s-.637-.75-1.415-.75c-1.04 0-1.503-1.721-1.75-6.502-.184-3.576-.086-6.501.217-6.5.304.001 1.387 2.365 2.406 5.252 1.019 2.887 2.2 6.206 2.625 7.375.572 1.573 1.393 2.007 3.159 1.669 1.927-.368 2.849-1.788 4.786-7.375 1.32-3.805 2.746-6.919 3.17-6.919 1.108 0-.307 12.371-1.503 13.153-.551.36 1.769.81 5.154 1 3.385.191 6.154.009 6.153-.403-.001-.412-.644-.75-1.429-.75-1.101 0-1.502-1.995-1.759-8.75-.296-7.753-.105-8.951 1.676-10.515 1.952-1.714 1.853-1.757-3.391-1.5l-5.402.265-2.588 7.25c-1.423 3.988-2.87 7.25-3.214 7.25-.345 0-1.858-3.375-3.363-7.5l-2.735-7.5-5.648.032c-4.912.027-5.421.205-3.899 1.36m40.25 4.099c-.55.184-2.237.607-3.75.941-2.098.462-2.75 1.194-2.75 3.087 0 3.095 3.55 3.474 4.5.481.891-2.807 3.16-2.491 3.922.546.9 3.584.028 4.454-4.462 4.454-3.411 0-4.009.346-4.588 2.656-1.036 4.124 4.395 7.177 7.408 4.164.906-.906 1.753-.873 3.654.145 2.147 1.149 2.846 1.078 5.271-.536 2.298-1.529 2.484-1.924 1.045-2.218-1.405-.287-1.75-1.416-1.75-5.728 0-4.415-.395-5.646-2.223-6.926-2.11-1.479-4.051-1.808-6.277-1.066m16 .184c-4.632 1.025-5.121 1.392-3.25 2.442 2.336 1.312 2.516 11.602.232 13.273-1.181.863-.29 1.11 4 1.11 5.655 0 6.304-.314 4.458-2.16-1.661-1.661-.763-10.84 1.06-10.84 1.139 0 1.571 1.482 1.795 6.153l.295 6.153 4.455.354c4.247.338 5.62-.322 3.455-1.66-.55-.34-1-3.201-1-6.359s-.54-6.281-1.2-6.941c-1.519-1.519-6.043-1.557-7.536-.064-.847.847-1.55.72-2.771-.5-.9-.9-1.716-1.584-1.814-1.52-.099.064-1.079.315-2.179.559m25 .049c-6.959 1.71-6.02 6.934 2.142 11.909 3.061 1.866.472 2.969-2.699 1.149-2.807-1.611-2.972-1.597-4.016.355-1.345 2.513-1.065 2.804 3.395 3.528 4.736.768 8.379-.238 9.684-2.677 1.442-2.693-.03-5.215-4.627-7.927-2.869-1.692-3.407-2.429-2.459-3.364.945-.931 1.502-.808 2.508.553 1.915 2.592 4.572 2.224 4.572-.633 0-3.084-3.239-4.187-8.5-2.893m48.75-.001c-3.433.426-4.261 1.675-1.75 2.639 2.368.908 2.152 18.423-.25 20.246-1.516 1.151-.922 1.333 4.441 1.36 6.233.032 9.062-1.277 5.324-2.463-1.293-.41-2.015-1.512-2.015-3.072 0-2.114.459-2.433 3.5-2.433 4.962 0 7.5-2.853 7.5-8.429 0-2.692-.616-5.044-1.571-6-1.837-1.836-5.539-2.061-7.165-.435-.847.847-1.55.72-2.771-.5-.9-.9-1.716-1.564-1.814-1.476-.099.088-1.642.342-3.429.563M191 157c0 3.814.362 5 1.525 5 2.223 0 3.844-4.895 2.556-7.722-.571-1.253-1.723-2.278-2.56-2.278-1.159 0-1.521 1.191-1.521 5m-96.312 1.646c-1.374 1.374-.662 3.496 1.062 3.164.963-.186 1.75-.969 1.75-1.74 0-1.579-1.764-2.472-2.812-1.424M23 162.878c0 1.816 2.945 7.831 4.442 9.074 2.155 1.789 1.96.776-.959-4.985-2.401-4.738-3.483-6.009-3.483-4.089m-4 .931c0 1.236 2.773 4.755 3.302 4.189.756-.81-1.146-4.998-2.27-4.998-.567 0-1.032.364-1.032.809" fill="#1976D2" fill-rule="evenodd"/><path fill-opacity=".457" d="m3.108 58.25.108 58.25 2.311-13c1.271-7.15 2.763-14.45 3.314-16.221 2.166-6.958 6.729-13.404 15.662-22.126 6.447-6.295 9.696-10.271 10.523-12.879 1.271-4.01 11.035-14.738 21.279-23.381 5.721-4.827 5.88-4.889 11.081-4.277 5.241.615 5.292.595 7.407-2.989 2.733-4.632 7.667-7.619 12.595-7.623 3.151-.003 4.721-.771 8.275-4.048 4.385-4.041 6.948-4.401 6.018-.843-.608 2.325.174 2.377 3.26.216 1.312-.919 6.699-3.382 11.972-5.473L126.5.054 64.75.027 3 0l.108 58.25M130.215 2.5c2.023 1.375 4.437 2.5 5.363 2.5 1.381 0 1.576.661 1.088 3.669-.327 2.018-1.174 4.036-1.881 4.485-.707.448-4.21.838-7.785.866-16.045.123-27.709 3.991-47.785 15.844-19.107 11.282-37.876 29.597-45.203 44.112-4.317 8.552-5.795 14.894-8.004 34.339-1.223 10.765-2.663 19.052-3.64 20.941-1.396 2.699-1.463 4.231-.491 11.186C23.335 150.88 23.299 152 21.5 152c-.825 0-1.5.413-1.5.918 0 2.224 1.352 4.082 2.97 4.082 1.274 0 2.799 2.538 5.557 9.25l3.801 9.25 21.063 20.75c21.507 21.188 23.996 22.963 27.409 19.55.933-.933 1.2-.867 1.2.3 0 .825-.527 2.027-1.172 2.672-2.231 2.231 10.328 7.025 21.672 8.271 5.5.604 14.5 1.953 20 2.997 7.488 1.422 11.005 1.662 14 .953 2.2-.52 5.575-.97 7.5-1.001 4.154-.066 8.603-3.562 9.603-7.546l.682-2.719 1.636 2.168c1.629 2.16 1.643 2.16 3.75.196 1.164-1.084 2.413-1.673 2.777-1.31.363.364 1.069-.001 1.569-.81 1.159-1.878 4.983-2.135 4.983-.334 0 1.684 2.185 1.778 3.8.163.933-.933 1.467-.933 2.4 0 .66.66 1.816 1.2 2.568 1.2 1.777 0 21.708-13.524 36.834-24.994 6.533-4.953 12.445-9.006 13.138-9.006.693 0 1.26-.436 1.26-.969 0-.532.615-.732 1.366-.444.836.321 2.761-1.417 4.956-4.473 1.975-2.748 4.497-5.482 5.605-6.075 1.782-.954 1.617-.15-1.436 6.982-4.251 9.932-9.951 19.586-16.223 27.479-2.622 3.3-5.218 7.345-5.768 8.988-.594 1.776-1.811 3.11-3 3.289-4.925.741-6.5 1.345-6.503 2.492-.002.727-1.446 1.262-3.526 1.307-5.083.11-6.209 1.67-3.6 4.988 2.876 3.656 2.703 5.324-.264 2.537l-2.392-2.248-6.108 6.28c-3.875 3.985-6.107 7.118-6.107 8.574 0 1.845-.547 2.293-2.8 2.293-3.461 0-5.2 1.634-5.2 4.887v2.487l-2.872-2.751c-2.826-2.708-2.955-2.731-8.162-1.437-3.656.908-5.367 1.855-5.54 3.064-.234 1.645 2.509 1.75 45.662 1.75H253v-76c0-41.8-.208-76-.461-76-.717 0-2.64 7.688-4.127 16.5l-1.35 8 .412-8.629c.361-7.566.208-8.614-1.243-8.5-.91.071-1.829-.718-2.041-1.753-.213-1.035-1.915-3.41-3.782-5.277-5.081-5.081-7.735-10.895-7.018-15.376.824-5.157-.845-9.192-5.275-12.752-2.898-2.329-4.279-4.57-5.945-9.644-1.193-3.636-2.17-7.517-2.17-8.625 0-1.682-.319-1.843-1.934-.979-1.064.569-2.81 1.035-3.879 1.035-1.07 0-8.637-4.754-16.816-10.564-20.667-14.68-29.849-20.037-35.624-20.784C153.335 25.564 146 20.51 146 15.801c0-2.684 4.307-4.975 8.674-4.616 2.398.197 4.231-.202 4.912-1.071.787-1.005 3.675-1.389 10.5-1.396 11.138-.012 21.25 2.938 32.167 9.386 10.881 6.427 16.031 12.431 29.934 34.896l12.686 20.5 1.562 13.5c.86 7.425 1.563 15.07 1.564 16.99l.001 3.49 2.5-2.697 2.5-2.696V0H126.536l3.679 2.5m-9.644 83.071c-1.859 1.86-1.875 1.993-.536 4.495.588 1.097 2.086 1.934 3.465 1.934 2.035 0 4.5-2.39 4.5-4.363 0-1.045-3.207-3.637-4.5-3.637-.746 0-2.064.707-2.929 1.571m8.947 8.368c-1.077 3.56-1.589 7.496-1.276 9.825.475 3.547.276 3.98-2.285 4.946-2.093.79-2.692.763-2.358-.107.663-1.728-2.057-8.922-3.563-9.424-1.007-.336-1.145.611-.608 4.188.517 3.447.296 5.189-.868 6.85-2.831 4.043-1.618 8.08 5.347 17.783 1.382 1.925 2.65 3.695 2.819 3.933.169.239.717.014 1.218-.5.552-.565-.462-3.254-2.574-6.825-1.917-3.241-3.122-6.222-2.678-6.625 1.255-1.139 13.963-5.983 15.694-5.983.849 0 3.158 1.417 5.131 3.149 3.378 2.966 4.85 3.031 5.662.248.176-.606-1.633-2.742-4.02-4.747-3.813-3.201-4.8-3.571-8.106-3.043-3.747.6-3.767.585-4.399-3.372-.436-2.725-.036-5.718 1.272-9.521 1.988-5.777 1.858-6.714-.934-6.714-1.177 0-2.21 1.766-3.474 5.939m9.113-3.237c-1.098 1.098-.684 2.298.792 2.298.783 0 2.761 1.125 4.395 2.5 4.145 3.488 5.15 3.124 1.619-.586-3.389-3.561-5.902-5.116-6.806-4.212M107.2 110.2c-2.86 2.86-.228 7.225 3.995 6.627 4.227-.599 3.195-7.827-1.117-7.827-.923 0-2.218.54-2.878 1.2M3.085 186.75 3 256h77.723c65.768 0 77.419-.209 75.75-1.358-4.985-3.431-10.665-4.059-36.615-4.048-12.87.006-16.534-.275-16.165-1.238.279-.725-.288-1.218-1.357-1.18-1.01.036-6.336-2.464-11.836-5.556C85 239.529 79.372 237 77.994 237c-4.018 0-9.03-1.753-13.123-4.589-2.887-2.001-5.437-2.758-10.587-3.145-4.196-.315-8.027-1.259-10.043-2.475-4.015-2.421-7.776-8.664-9.211-15.291-.641-2.956-2.023-5.817-3.382-7-1.264-1.1-3.117-4.25-4.118-7-1-2.75-5.129-12.567-9.175-21.815-7.796-17.822-9.065-23.714-5.646-26.214 1.611-1.178 1.608-1.672-.045-8.61-.965-4.049-3.495-10.961-5.624-15.361l-3.87-8-.085 69.25m169.364-47.312c-1.36 2.075-1.446 2.861-.445 4.067 1.693 2.04 4.719 1.881 5.891-.309 1.027-1.919.619-2.903-2.078-5.013-1.452-1.136-1.915-.964-3.368 1.255M145 142.375c0 .756.281 2.781.625 4.5.819 4.096 4.098 4.372 4.559.384.19-1.654 1.011-2.874 2.066-3.074 1.561-.296 1.75.636 1.75 8.635 0 7.047-.321 9.089-1.5 9.542-3.545 1.36-1.123 2.638 5 2.638 6.114 0 8.373-1.067 5-2.362-2.139-.82-2.215-18.638-.079-18.638.781 0 1.711 1.323 2.066 2.94.492 2.243 1.282 3.013 3.329 3.25 2.555.295 2.698.61 2.982 6.56.185 3.879-.1 6.25-.75 6.25-.577 0-1.048.45-1.048 1 0 .556 2.667 1 6 1 5.525 0 7.471-.973 5-2.5-.55-.34-1-3.461-1-6.937 0-7.52-1.269-9.11-6.489-8.131-3.478.652-3.511.626-3.511-2.887V141h-12c-9.515 0-12 .285-12 1.375m-91 .468c0 .519.662 1.197 1.472 1.508 1.201.461 1.363 2.094.881 8.857-.373 5.23-1.101 8.702-1.972 9.402-2.378 1.912-1.554 2.39 4.119 2.39 5.735 0 6.558-.506 3.94-2.42-1.16-.848-1.48-2.543-1.25-6.61l.31-5.47 2.477 7.25c2.432 7.119 3.729 8.36 6.739 6.447.669-.425 2.334-3.681 3.701-7.235l2.485-6.462.049 5.781c.036 4.25-.348 5.934-1.451 6.357-3.373 1.295-1.114 2.362 5 2.362s8.373-1.067 5-2.362c-2.359-.905-2.145-17.414.25-19.283 1.531-1.194 1.069-1.333-3.693-1.11l-5.444.255-2.231 5.5c-1.228 3.025-2.508 6.4-2.846 7.5-.461 1.5-1.309.126-3.395-5.5l-2.781-7.5-5.68-.3c-3.124-.165-5.68.125-5.68.643m38 5.046c-3.414.942-4.237 6.111-.973 6.111 1.334 0 2.364-.781 2.694-2.041.728-2.786 2.707-1.911 3.095 1.368.288 2.431.012 2.673-3.05 2.673-3.862 0-5.766 1.486-5.766 4.5 0 1.155.54 2.64 1.2 3.3 1.494 1.494 6.034 1.566 7.482.118.776-.776 1.681-.708 3.2.24 1.764 1.102 2.486 1.093 4.323-.054 1.568-.979 2.314-1.048 2.583-.24.457 1.37 10.837 1.553 11.669.205.317-.512.118-1.213-.441-1.559-1.543-.954-1.319-10.777.234-10.264.774.256 1.363 2.763 1.548 6.583l.297 6.171h4.953c4.747 0 6.613-1.426 3.452-2.638-1.118-.429-1.5-2.211-1.5-6.99 0-5.872-.212-6.511-2.5-7.554-1.887-.86-3.14-.847-5.112.051-1.963.894-2.954.906-3.989.047-.834-.692-2.763-.883-4.888-.484-3.504.657-4.628 2.203-2.261 3.11 1.585.607 1.462 11.721-.136 12.253-.613.205-1.114-.116-1.114-.712 0-.595-.675-1.083-1.5-1.083-1.166 0-1.5-1.329-1.5-5.965 0-4.874-.354-6.154-1.934-7-2.139-1.144-6.232-1.204-10.066-.146m41.488 1.368c-3.537 3.042-2.803 5.607 2.636 9.206 4.677 3.096 4.594 4.477-.124 2.037-3.549-1.835-3.49-1.851-4.418 1.169-.729 2.378 1.047 3.397 6.171 3.543 8.92.254 11.321-6.703 3.726-10.793-1.913-1.031-3.479-2.446-3.479-3.146 0-1.766 1.938-1.599 2.638.227.317.825 1.458 1.5 2.535 1.5 1.548 0 1.893-.578 1.643-2.75-.281-2.447-.772-2.783-4.45-3.052-3.185-.232-4.764.24-6.878 2.059m50.262-1.568c-1.935.506-2.295 1.856-.75 2.811.552.341 1 4.844 1 10.059 0 5.627-.404 9.441-1 9.441-.55 0-1 .45-1 1 0 .564 2.833 1 6.5 1 6.578 0 8.149-1.047 4.5-3-3.031-1.622-2.517-4 .865-4 1.576 0 4.034-.919 5.463-2.043 6.799-5.348 2.31-18.777-4.973-14.879-1.84.985-2.669 1.008-3.575.102-1.178-1.178-3.721-1.355-7.03-.491m7.25 8.679c0 4.672 1.553 6.916 3.123 4.51 1.536-2.354.594-8.32-1.373-8.693-1.457-.276-1.75.424-1.75 4.183m-96.457 3.563c-.683 1.105.894 2.299 1.818 1.375.95-.951.773-2.306-.302-2.306-.518 0-1.2.419-1.516.931M19 163.878c0 .482.675 1.437 1.5 2.122 1.628 1.351 1.832 1.028.893-1.418-.643-1.675-2.393-2.19-2.393-.704m5.45 2.654c.668 1.943 1.806 4.08 2.529 4.75 1.066.987 1.173.838.566-.782-.412-1.1-1.198-3.238-1.745-4.75-.548-1.512-1.349-2.75-1.78-2.75-.431 0-.238 1.589.43 3.532" fill="#1976D2" fill-rule="evenodd"/><path fill-opacity=".336" d="m3.115 57.25.116 57.25L4.995 104c3.551-21.131 5.029-24.199 18.07-37.5 6.121-6.244 10.533-11.69 11.747-14.5 1.341-3.106 5.673-8.141 13.982-16.25L60.832 24h6.002c5.758 0 6.089-.14 8.122-3.429 2.523-4.083 9.75-7.934 13.243-7.057 1.85.464 3.432-.317 6.999-3.457C100.508 5.383 102 5.026 102 8.43v2.429l4.616-2.58c2.539-1.419 7.826-3.846 11.75-5.395L125.5.069 64.25.034 3 0l.115 57.25M131 2.5c1.864 1.375 3.976 2.5 4.694 2.5.822 0 1.306 1.277 1.306 3.443 0 5.202-2.669 6.554-12.973 6.572-15.14.026-24.732 3.343-45.91 15.875C59.93 41.652 41.634 59.857 34.209 74.58c-4.212 8.353-5.829 15.336-7.738 33.42-.984 9.32-2.381 17.322-3.504 20.069-1.845 4.515-1.688 10.156.588 21.051.434 2.08.108 2.735-1.579 3.176-1.792.469-1.955.875-1.036 2.593.6 1.12 1.686 1.808 2.414 1.529.9-.346 2.54 2.425 5.123 8.658 3.062 7.386 5.228 10.768 11.157 17.414 4.047 4.536 8.687 9.319 10.311 10.629 1.625 1.31 8.184 7.305 14.577 13.323 11.517 10.841 11.653 10.931 14.735 9.767 3.76-1.419 4.632-.848 2.427 1.588-1.547 1.709-1.341 1.955 3.732 4.443 5.47 2.682 11.936 4.118 23.621 5.244 3.596.346 10.194 1.423 14.663 2.393 7.319 1.588 8.904 1.625 15.963.367 8.973-1.599 10.296-2.139 11.77-4.811.587-1.063 1.47-2.225 1.963-2.582.492-.357.58-1.471.194-2.477-.626-1.633-.456-1.609 1.604.226 2.483 2.21 5.806 2.129 5.806-.142 0-.829.608-1.162 1.5-.82.825.317 1.5.078 1.5-.531s1.125-1.107 2.5-1.107c1.556 0 2.5.567 2.5 1.5 0 1.931.903 1.898 3.127-.115 1.645-1.488 1.917-1.484 3.458.057.92.92 2.281 1.44 3.025 1.154 2.742-1.052 20.3-13.245 34.112-23.689 7.822-5.915 15.247-11.075 16.5-11.466 1.253-.392 4.593-3.239 7.422-6.327 2.829-3.088 5.489-5.279 5.911-4.87 1.398 1.357-12.216 26.94-18.496 34.756-3.314 4.125-6.033 8.218-6.042 9.095-.027 2.507-3.373 4.905-6.846 4.905-2.246 0-3.171.469-3.171 1.607 0 1.004-.552 1.395-1.472 1.042-.809-.31-2.833-.09-4.496.49l-3.025 1.054 1.996 2.538c1.099 1.397 1.997 3.456 1.997 4.578 0 1.965-.092 1.953-2.523-.331l-2.523-2.37-5.977 5.915c-4.452 4.406-5.977 6.624-5.977 8.696 0 2.512-.339 2.781-3.5 2.781-3.222 0-3.5.238-3.5 3 0 3.631-1.508 3.823-4.519.574-2.146-2.315-2.471-2.369-7.114-1.185-3.109.793-4.982 1.849-5.189 2.926-.301 1.56 3.054 1.685 45.249 1.685H253l-.067-76.25c-.057-65.307-.259-75.633-1.408-71.954-.738 2.364-1.833 7.952-2.434 12.418-.602 4.467-1.354 8.382-1.673 8.701-.318.319-.43-3.352-.248-8.157.273-7.234.078-8.695-1.134-8.497-.805.131-1.644-.661-1.865-1.761-.22-1.1-2.111-3.861-4.201-6.136-5.855-6.372-7.395-9.985-7.099-16.661.252-5.671.16-5.893-4.221-10.211-4.681-4.615-8.65-13.082-8.65-18.453 0-2.88-.006-2.883-3.036-1.371-3.561 1.776-1.923 2.634-21.607-11.31C176.197 32.786 166.317 27 162.303 27 155.309 27 146 20.939 146 16.384c0-3.611 2.617-5.384 7.949-5.384 3.052 0 5.26-.547 6.051-1.5 1.672-2.015 14.556-2.011 22.54.006 9.384 2.371 23.234 9.682 30.069 15.873 4.808 4.355 8.919 10.035 19.309 26.679l13.201 21.146 1.441 11.61c.792 6.385 1.442 14.102 1.445 17.148l.005 5.538 2.459-3 2.459-3 .036-50.75L253 0H127.611L131 2.5m-10.989 82.987c-2.794 3.367 1.194 8.523 5.357 6.925 2.187-.839 3.174-5.054 1.621-6.925-1.587-1.913-5.391-1.913-6.978 0m11.443 2.588c-2.092 3.384-4.218 12.264-3.758 15.693.445 3.318.219 4.021-1.429 4.452-1.639.429-2.16-.279-3.204-4.352-1.343-5.238-2.019-6.131-3.806-5.027-.804.497-.879 1.901-.251 4.684.73 3.239.535 4.587-1.055 7.282-1.073 1.819-1.951 3.707-1.951 4.197 0 1.088 6.235 11.594 8.836 14.89 1.097 1.389 2.383 2.089 3.066 1.666.832-.514.142-2.577-2.353-7.039l-3.53-6.312 4.241-1.738c2.332-.956 6.207-2.348 8.611-3.093 4.281-1.327 4.451-1.291 8.322 1.775 3.717 2.944 4.052 3.029 5.63 1.428 1.573-1.596 1.397-1.948-2.823-5.673-3.905-3.446-4.997-3.913-8.255-3.534-3.401.396-3.809.187-4.337-2.219-.321-1.46-.7-3.105-.842-3.655-.143-.55.572-3.433 1.587-6.407C135.169 92.12 136 89.36 136 88.96c0-1.122-3.928-1.886-4.546-.885M138 91.433c0 .788.93 1.727 2.066 2.088 1.136.36 3.611 2.012 5.5 3.671 4.729 4.153 4.328 1.971-.565-3.071-4.048-4.172-7.001-5.306-7.001-2.688M107.2 110.2c-1.859 1.859-1.418 5.613.8 6.8 3.845 2.058 8.03-2.206 5.961-6.072-1.154-2.157-4.926-2.563-6.761-.728M3.085 187.25 3 256h77c42.35 0 77-.209 77-.465 0-3.319-31.313-6.579-45.887-4.777-6.742.834-7.428.754-7.863-.911-.263-1.004-.859-1.588-1.326-1.3-.468.289-2.578-.566-4.69-1.899C89.641 241.854 78.993 237 76.072 237c-3.371 0-7.018-1.445-11.962-4.741-2.473-1.648-4.849-2.259-8.789-2.259-10.278 0-17.979-6.646-20.439-17.638-.725-3.24-2.086-6.181-3.322-7.176-1.151-.927-3.392-5.061-4.979-9.186-1.588-4.125-5.767-14.025-9.288-22-4.701-10.649-6.453-15.822-6.597-19.478-.127-3.228.214-4.986.971-5 .641-.012 1.447-.303 1.79-.646 1.211-1.211-2.592-14.476-6.415-22.376l-3.872-8-.085 68.75m169.57-48.421c-2.153 2.379-2.087 3.47.345 5.671 1.93 1.747 2.07 1.747 4 0 2.481-2.245 2.524-3.716.171-5.845-2.287-2.07-2.492-2.063-4.516.174M53.71 141.623c-1.19 1.19-.795 2.377.79 2.377 1.221 0 1.5 1.655 1.5 8.893 0 6.982-.322 9.017-1.5 9.469C51.069 163.678 53.323 165 59 165c5.686 0 7.784-1.101 4.5-2.362-.986-.378-1.478-1.872-1.435-4.357l.065-3.781 2.069 5.25c1.797 4.561 2.43 5.25 4.821 5.25 2.479 0 3.007-.671 5.311-6.75l2.558-6.75.056 5.143c.039 3.687-.37 5.306-1.445 5.719-.825.316-1.5 1.069-1.5 1.672 0 .711 2.548 1.033 7.25.916 3.987-.099 8.493.147 10.013.547 1.749.46 3.32.264 4.28-.532 1.166-.969 2.096-.995 4.027-.115 2.02.92 2.99.829 4.97-.468 2.51-1.645 3.26-3.382 1.46-3.382-.55 0-1-2.405-1-5.345 0-7.339-1.95-9.073-9.504-8.446-6.472.536-7.997 1.657-7.104 5.218.888 3.536 4.324 3.45 5.69-.143.829-2.18 1.216-2.427 1.96-1.25 1.991 3.147 1.117 4.966-2.387 4.966-3.85 0-7.245 3.021-6.265 5.574.467 1.218.216 1.489-.96 1.037-.877-.336-1.782-.611-2.012-.611-.23 0-.418-3.839-.418-8.531 0-6.661.329-8.658 1.5-9.107.825-.317 1.5-1.226 1.5-2.021 0-1.114-1.192-1.376-5.193-1.143l-5.194.302-2.231 5.5c-1.228 3.025-2.508 6.4-2.846 7.5-.461 1.5-1.309.126-3.395-5.5l-2.781-7.5-5.47-.294c-3.008-.161-5.789.026-6.18.417m91.29 2.634c0 3.249-.012 3.256-4.519 2.898-5.517-.439-9.481 1.775-9.481 5.295 0 2.235 1.906 4.296 6.642 7.183 1.022.623 1.589 1.417 1.261 1.764-.329.347-1.788-.305-3.242-1.449l-2.644-2.08-1.181 2.593c-1.514 3.323-.365 4.524 5.022 5.247 5.443.73 9.142-1.583 9.142-5.717 0-2.349-.829-3.511-4-5.61-2.2-1.456-4-3.037-4-3.514 0-1.533 1.482-.926 2.768 1.133.687 1.1 1.89 2 2.673 2 .783 0 1.71-.9 2.059-2 .349-1.1 1.456-2 2.459-2 1.112 0 2.069-.976 2.452-2.5 1.314-5.238 2.589-2.27 2.589 6.031 0 6.661-.329 8.658-1.5 9.107-3.531 1.355-.974 2.362 6 2.362 4.761 0 7.5-.399 7.5-1.094 0-.601-.859-1.318-1.909-1.592-1.688-.442-1.909-1.474-1.909-8.907 0-6.565.309-8.407 1.409-8.407.836 0 1.409 1.016 1.409 2.5 0 1.798.539 2.5 1.918 2.5 4.242 0 5.082 1.038 5.082 6.278 0 3.309-.574 5.698-1.655 6.893-1.588 1.755-1.384 1.829 5 1.829 5.249 0 6.655-.317 6.655-1.5 0-.825-.45-1.5-1-1.5-.571 0-1-2.994-1-6.981 0-6.626-.128-7.013-2.518-7.613-1.386-.348-3.536-.438-4.779-.2-2.035.389-2.221.102-1.872-2.887l.388-3.319H145v3.257m-37.99 4.231c-1 1.205-.929 1.606.377 2.107 1.205.462 1.613 1.969 1.613 5.953 0 2.934-.45 5.612-1 5.952-2.471 1.527-.525 2.5 5 2.5s7.471-.973 5-2.5c-1.532-.947-1.293-10.763.25-10.254.774.256 1.363 2.763 1.548 6.583l.297 6.171h4.953c4.616 0 6.287-1.057 3.952-2.5-.55-.34-1-2.587-1-4.994 0-8.64-2.729-11.802-8.356-9.678-2.023.764-3.397.819-4.052.164-1.511-1.511-7.189-1.183-8.582.496m74.99-.454c-1.311.878-1.28 1.173.25 2.345 1.441 1.105 1.75 2.954 1.75 10.481 0 5.427-.406 9.14-1 9.14-.55 0-1 .45-1 1 0 .564 2.833 1 6.5 1 6.123 0 8.545-1.278 5-2.638-.825-.317-1.5-1.428-1.5-2.469 0-1.391.73-1.901 2.75-1.925 4.897-.056 8.25-4.213 8.25-10.228 0-5.632-6.422-9.918-9.8-6.54-.933.933-1.467.933-2.4 0-1.453-1.453-6.728-1.552-8.8-.166m10 8.427c0 3.317.369 4.585 1.25 4.295 1.893-.621 2.111-6.212.301-7.714-1.364-1.132-1.551-.719-1.551 3.419M95 160c0 .55.45 1 1 1s1-.45 1-1-.45-1-1-1-1 .45-1 1m-74.921 4.583c.048 1.165.285 1.402.604.605.289-.722.253-1.585-.079-1.917-.332-.332-.568.258-.525 1.312M25.086 167c-.031.825.381 2.175.914 3 1.181 1.828 1.181.249 0-2.5-.567-1.319-.878-1.489-.914-.5" fill="#1976D2" fill-rule="evenodd"/></svg>